<svg xmlns="http://www.w3.org/2000/svg" width="590" height="584" fill="none"><g opacity=".2" style="mix-blend-mode:plus-lighter"><path stroke="#fff" d="M155.364 255.624h-46.121m46.466 11.703H72.415l-14.8 14.8m98.438-3.098H95.131m60.922 12.391H79.987l-15.145 15.144m91.211-3.097h-46.466m46.217 34.661h-14.359m14.264-22.27H89.624l-14.8 14.8H23.196m132.513 21.829h-47.842l-16.522 16.521v22.373M59.336 201.242l29.256 29.256h67.212" style="mix-blend-mode:plus-lighter"/><circle cx="3.442" cy="3.442" r="3.442" fill="#fff" style="mix-blend-mode:plus-lighter" transform="matrix(-1 0 0 1 61.056 195.735)"/><circle cx="3.442" cy="3.442" r="3.442" fill="#fff" style="mix-blend-mode:plus-lighter" transform="matrix(-1 0 0 1 29.39 250.806)"/><circle cx="3.442" cy="3.442" r="3.442" fill="#fff" style="mix-blend-mode:plus-lighter" transform="matrix(-1 0 0 1 109.243 252.182)"/><circle cx="3.442" cy="3.442" r="3.442" fill="#fff" style="mix-blend-mode:plus-lighter" transform="matrix(-1 0 0 1 94.482 194.538)"/><circle cx="3.442" cy="3.442" r="3.442" fill="#fff" style="mix-blend-mode:plus-lighter" transform="matrix(-1 0 0 1 25.08 173)"/><circle cx="3.442" cy="3.442" r="3.442" fill="#fff" style="mix-blend-mode:plus-lighter" transform="matrix(-1 0 0 1 58.303 280.406)"/><circle cx="3.442" cy="3.442" r="3.442" fill="#fff" style="mix-blend-mode:plus-lighter" transform="matrix(-1 0 0 1 94.787 275.587)"/><circle cx="3.442" cy="3.442" r="3.442" fill="#fff" style="mix-blend-mode:plus-lighter" transform="matrix(-1 0 0 1 109.932 299.681)"/><circle cx="3.442" cy="3.442" r="3.442" fill="#fff" style="mix-blend-mode:plus-lighter" transform="matrix(-1 0 0 1 65.875 305.188)"/><circle cx="3.442" cy="3.442" r="3.442" fill="#fff" style="mix-blend-mode:plus-lighter" transform="matrix(-1 0 0 1 94.482 341.718)"/><circle cx="3.442" cy="3.442" r="3.442" fill="#fff" style="mix-blend-mode:plus-lighter" transform="matrix(-1 0 0 1 141.148 334.538)"/><circle cx="3.442" cy="3.442" r="3.442" fill="#fff" style="mix-blend-mode:plus-lighter" transform="matrix(-1 0 0 1 23.884 327.216)"/><circle cx="3.442" cy="3.442" r="3.442" fill="#fff" style="mix-blend-mode:plus-lighter" transform="matrix(-1 0 0 1 94.787 391.381)"/><path stroke="#fff" d="M155.709 242.889H78.954l-11.358 11.358H29.391" style="mix-blend-mode:plus-lighter"/><path stroke="#fff" d="M155.803 218.47h-25.726l-20.94-20.94H93.581M156 323.769h-25.923l-20.94 20.94H93.581"/><path stroke="#fff" d="M155.804 205.308h-25.727l-28.718-28.718h-77.18"/></g><g opacity=".2" style="mix-blend-mode:plus-lighter"><path stroke="#fff" d="M434.636 315.64h46.121m-46.466-11.702h83.294l14.8-14.8m-98.438 3.097h60.922m-60.922-12.391h76.066l15.145-15.144m-91.211 3.098h46.466m-46.217-34.662h14.359m-14.264 22.271h66.085l14.8-14.8h51.628m-132.513-21.83h47.842l16.522-16.521v-22.372m32.009 190.138-29.256-29.256h-67.212" style="mix-blend-mode:plus-lighter"/><circle cx="3.442" cy="3.442" r="3.442" fill="#fff" style="mix-blend-mode:plus-lighter" transform="matrix(1 0 0 -1 528.944 375.529)"/><circle cx="3.442" cy="3.442" r="3.442" fill="#fff" style="mix-blend-mode:plus-lighter" transform="matrix(1 0 0 -1 560.609 320.459)"/><circle cx="3.442" cy="3.442" r="3.442" fill="#fff" style="mix-blend-mode:plus-lighter" transform="matrix(1 0 0 -1 480.757 319.082)"/><circle cx="3.442" cy="3.442" r="3.442" fill="#fff" style="mix-blend-mode:plus-lighter" transform="matrix(1 0 0 -1 495.518 376.726)"/><circle cx="3.442" cy="3.442" r="3.442" fill="#fff" style="mix-blend-mode:plus-lighter" transform="matrix(1 0 0 -1 564.92 398.264)"/><circle cx="3.442" cy="3.442" r="3.442" fill="#fff" style="mix-blend-mode:plus-lighter" transform="matrix(1 0 0 -1 531.697 290.859)"/><circle cx="3.442" cy="3.442" r="3.442" fill="#fff" style="mix-blend-mode:plus-lighter" transform="matrix(1 0 0 -1 495.213 295.677)"/><circle cx="3.442" cy="3.442" r="3.442" fill="#fff" style="mix-blend-mode:plus-lighter" transform="matrix(1 0 0 -1 480.068 271.584)"/><circle cx="3.442" cy="3.442" r="3.442" fill="#fff" style="mix-blend-mode:plus-lighter" transform="matrix(1 0 0 -1 524.125 266.077)"/><circle cx="3.442" cy="3.442" r="3.442" fill="#fff" style="mix-blend-mode:plus-lighter" transform="matrix(1 0 0 -1 495.518 229.546)"/><circle cx="3.442" cy="3.442" r="3.442" fill="#fff" style="mix-blend-mode:plus-lighter" transform="matrix(1 0 0 -1 448.852 236.726)"/><circle cx="3.442" cy="3.442" r="3.442" fill="#fff" style="mix-blend-mode:plus-lighter" transform="matrix(1 0 0 -1 566.116 244.049)"/><circle cx="3.442" cy="3.442" r="3.442" fill="#fff" style="mix-blend-mode:plus-lighter" transform="matrix(1 0 0 -1 495.213 179.884)"/><path stroke="#fff" d="M434.291 328.375h76.754l11.359-11.358h38.205" style="mix-blend-mode:plus-lighter"/><path stroke="#fff" d="M434.197 352.794h25.726l20.94 20.94h15.556M434 247.495h25.923l20.94-20.94h15.556"/><path stroke="#fff" d="M434.196 365.957h25.727l28.718 28.718h77.179"/></g><path fill="#C5B9F7" fill-opacity=".09" d="M143 164c0-8.837 7.163-16 16-16h273c8.837 0 16 7.163 16 16v244c0 13.807-11.193 25-25 25H168c-13.807 0-25-11.193-25-25V164Z" style="mix-blend-mode:plus-lighter"/><g filter="url(#a)" style="mix-blend-mode:screen"><rect width="282" height="276" x="154" y="154" fill="#533CAD" rx="20"/></g><g filter="url(#b)"><g clip-path="url(#c)"><rect width="264" height="252" x="163" y="160" fill="#150459" fill-opacity=".1" rx="12"/><g filter="url(#d)"><ellipse cx="193.231" cy="286.117" fill="url(#e)" rx="145.97" ry="144.856" transform="rotate(-180 193.231 286.117)"/><ellipse cx="396.03" cy="286.117" fill="url(#f)" rx="145.97" ry="144.856"/></g></g><rect width="263" height="251" x="163.5" y="160.5" stroke="#fff" stroke-opacity=".2" rx="11.5"/></g><g filter="url(#g)" style="mix-blend-mode:overlay"><ellipse cx="291.5" cy="406" fill="#fff" rx="18" ry="112.5" transform="rotate(90 291.5 406)"/></g><path fill="#fff" d="M241.865 327.536V268.4h11.648v-11.52h11.52v-11.648h13.056v11.648h11.52v11.52h11.776v59.136h-13.056v-23.168h-33.536v23.168h-12.928Zm12.928-36.096h33.536v-21.76h-11.52v-11.52h-10.496v11.52h-11.52v21.76Zm56.952 36.096v-12.8h11.648V258.16h-11.648v-12.928h36.224v12.928h-11.776v56.576h11.776v12.8h-36.224Z" opacity=".6" style="mix-blend-mode:plus-lighter"/><g filter="url(#h)"><path stroke="url(#i)" stroke-linecap="round" stroke-width="8" d="M160 169v231c0 8.284 6.716 15 15 15h240c8.284 0 15-6.716 15-15V169" shape-rendering="crispEdges" style="mix-blend-mode:plus-lighter"/></g><path stroke="#fff" d="M165 154.5h261c8.56 0 15.5 6.94 15.5 15.5v232c0 13.531-10.969 24.5-24.5 24.5H174c-13.531 0-24.5-10.969-24.5-24.5V170c0-8.56 6.94-15.5 15.5-15.5Z" opacity=".12"/><g opacity=".2" style="mix-blend-mode:plus-lighter"><path stroke="#fff" d="M370.684 467.543 356 452.859V419.3"/><circle cx="371.72" cy="468.407" r="1.728" fill="#fff" transform="rotate(90 371.72 468.407)"/><path stroke="#fff" d="M317.727 419.345v23.149"/><circle cx="317.727" cy="444.222" r="1.728" fill="#fff" transform="rotate(90 317.727 444.222)"/><path stroke="#fff" d="M306.02 419.173v41.806l-7.429 7.428"/><circle cx="297.728" cy="469.789" r="1.728" fill="#fff" transform="rotate(90 297.728 469.789)"/><path stroke="#fff" d="M293.727 419v30.577"/><circle cx="293.727" cy="451.477" r="1.728" fill="#fff" transform="rotate(90 293.727 451.477)"/><path stroke="#fff" d="M282.364 419v38.178l-7.601 7.601"/><circle cx="273.727" cy="465.988" r="1.728" fill="#fff" transform="rotate(90 273.727 465.988)"/><path stroke="#fff" d="M268.554 419v23.321"/><circle cx="268.727" cy="443.876" r="1.728" fill="#fff" transform="rotate(90 268.727 443.876)"/><path stroke="#fff" d="M254.155 419.173v33.168l-7.428 7.428v25.913"/><circle cx="246.727" cy="487.064" r="1.728" fill="#fff" transform="rotate(90 246.727 487.064)"/><path stroke="#fff" d="M236.976 419.173v24.012l-8.292 8.292h-11.229"/><circle cx="215.728" cy="451.477" r="1.728" fill="#fff" transform="rotate(90 215.728 451.477)"/><circle cx="331.727" cy="484.3" r="1.728" fill="#fff" transform="rotate(90 331.727 484.3)"/><path stroke="#fff" d="M337.428 419.173v38.523l-5.701 5.701v19.175"/></g><defs><filter id="a" width="590" height="584" x="0" y="0" color-interpolation-filters="sRGB" filterUnits="userSpaceOnUse"><feFlood flood-opacity="0" result="BackgroundImageFix"/><feBlend in="SourceGraphic" in2="BackgroundImageFix" result="shape"/><feGaussianBlur result="effect1_foregroundBlur_2037_444" stdDeviation="77"/></filter><filter id="b" width="292" height="280" x="149" y="146" color-interpolation-filters="sRGB" filterUnits="userSpaceOnUse"><feFlood flood-opacity="0" result="BackgroundImageFix"/><feGaussianBlur in="BackgroundImageFix" stdDeviation="7"/><feComposite in2="SourceAlpha" operator="in" result="effect1_backgroundBlur_2037_444"/><feBlend in="SourceGraphic" in2="effect1_backgroundBlur_2037_444" result="shape"/></filter><filter id="d" width="602.739" height="397.712" x="-6.739" y="87.26" color-interpolation-filters="sRGB" filterUnits="userSpaceOnUse"><feFlood flood-opacity="0" result="BackgroundImageFix"/><feBlend in="SourceGraphic" in2="BackgroundImageFix" result="shape"/><feGaussianBlur result="effect1_foregroundBlur_2037_444" stdDeviation="27"/></filter><filter id="g" width="305" height="116" x="139" y="348" color-interpolation-filters="sRGB" filterUnits="userSpaceOnUse"><feFlood flood-opacity="0" result="BackgroundImageFix"/><feBlend in="SourceGraphic" in2="BackgroundImageFix" result="shape"/><feGaussianBlur result="effect1_foregroundBlur_2037_444" stdDeviation="20"/></filter><filter id="h" width="286" height="262" x="152" y="165" color-interpolation-filters="sRGB" filterUnits="userSpaceOnUse"><feFlood flood-opacity="0" result="BackgroundImageFix"/><feColorMatrix in="SourceAlpha" result="hardAlpha" values="0 0 0 0 0 0 0 0 0 0 0 0 0 0 0 0 0 0 127 0"/><feOffset dy="4"/><feGaussianBlur stdDeviation="2"/><feComposite in2="hardAlpha" operator="out"/><feColorMatrix values="0 0 0 0 0 0 0 0 0 0 0 0 0 0 0 0 0 0 0.25 0"/><feBlend in2="BackgroundImageFix" result="effect1_dropShadow_2037_444"/><feBlend in="SourceGraphic" in2="effect1_dropShadow_2037_444" result="shape"/></filter><radialGradient id="e" cx="0" cy="0" r="1" gradientTransform="matrix(-8.63237 289.71242 -527.77577 -15.72579 201.863 141.261)" gradientUnits="userSpaceOnUse"><stop stop-color="#03091E"/><stop offset=".693" stop-color="#8258F2"/><stop offset="1" stop-color="#E3DDFE"/></radialGradient><radialGradient id="f" cx="0" cy="0" r="1" gradientTransform="matrix(-8.63237 289.71242 -527.77577 -15.72579 404.663 141.261)" gradientUnits="userSpaceOnUse"><stop stop-color="#03091E"/><stop offset=".693" stop-color="#8258F2"/><stop offset="1" stop-color="#E3DDFE"/></radialGradient><linearGradient id="i" x1="295" x2="295" y1="233.328" y2="415" gradientUnits="userSpaceOnUse"><stop stop-color="#09090B"/><stop offset="1" stop-color="#8976D2"/></linearGradient><clipPath id="c"><rect width="264" height="252" x="163" y="160" fill="#fff" rx="12"/></clipPath></defs></svg>